{
	"asset":{
		"generator":"Khronos glTF Blender I/O v4.0.44",
		"version":"2.0"
	},
	"extensionsUsed":[
		"KHR_materials_specular",
		"KHR_materials_ior"
	],
	"scene":0,
	"scenes":[
		{
			"name":"Scene",
			"nodes":[
				0,
				2
			]
		}
	],
	"nodes":[
		{
			"mesh":0,
			"name":"Plane.003",
			"rotation":[
				0,
				-0.7071068286895752,
				0,
				0.7071068286895752
			],
			"scale":[
				4.010735034942627,
				3.3388702869415283,
				2.386183023452759
			],
			"translation":[
				-0.14433050155639648,
				3.511871576309204,
				0.07857942581176758
			]
		},
		{
			"mesh":1,
			"name":"Kitchen faucet Grohe K7",
			"translation":[
				-0.00016006827354431152,
				0.28704261779785156,
				0
			]
		},
		{
			"children":[
				1
			],
			"name":"Kitchen Faucet Grohe K7",
			"scale":[
				5.233602046966553,
				5.233602046966553,
				5.233602046966553
			],
			"translation":[
				-2.132664203643799,
				3.4571144580841064,
				0.037170909345149994
			]
		}
	],
	"materials":[
		{
			"doubleSided":true,
			"name":"Material.004",
			"pbrMetallicRoughness":{
				"metallicFactor":0,
				"roughnessFactor":0.5
			}
		},
		{
			"doubleSided":true,
			"name":"Metal Chrome.001",
			"pbrMetallicRoughness":{
				"baseColorFactor":[
					0.800000011920929,
					0.800000011920929,
					0.800000011920929,
					1
				],
				"roughnessFactor":0.05000000074505806
			}
		},
		{
			"doubleSided":true,
			"extensions":{
				"KHR_materials_specular":{
					"specularFactor":0.3909090757369995
				},
				"KHR_materials_ior":{
					"ior":1.4500000476837158
				}
			},
			"name":"Rubber.001",
			"pbrMetallicRoughness":{
				"baseColorFactor":[
					0.05000000074505806,
					0.05000000074505806,
					0.05000000074505806,
					1
				],
				"metallicFactor":0,
				"roughnessFactor":0.5
			}
		},
		{
			"doubleSided":true,
			"extensions":{
				"KHR_materials_specular":{
					"specularColorFactor":[
						1.3727272748947144,
						1.3727272748947144,
						1.3727272748947144
					]
				},
				"KHR_materials_ior":{
					"ior":1.4500000476837158
				}
			},
			"name":"Material.007",
			"pbrMetallicRoughness":{
				"baseColorFactor":[
					0.15000000596046448,
					0.15000000596046448,
					0.15000000596046448,
					1
				],
				"metallicFactor":0,
				"roughnessFactor":0.25
			}
		}
	],
	"meshes":[
		{
			"name":"Plane.003",
			"primitives":[
				{
					"attributes":{
						"POSITION":0,
						"NORMAL":1,
						"TEXCOORD_0":2
					},
					"indices":3,
					"material":0
				}
			]
		},
		{
			"name":"Vert.002",
			"primitives":[
				{
					"attributes":{
						"POSITION":4,
						"NORMAL":5,
						"TEXCOORD_0":6
					},
					"indices":7,
					"material":1
				},
				{
					"attributes":{
						"POSITION":8,
						"NORMAL":9,
						"TEXCOORD_0":10
					},
					"indices":11,
					"material":2
				},
				{
					"attributes":{
						"POSITION":12,
						"NORMAL":13,
						"TEXCOORD_0":14
					},
					"indices":15,
					"material":3
				}
			]
		}
	],
	"accessors":[
		{
			"bufferView":0,
			"componentType":5126,
			"count":2176,
			"max":[
				1.0248445272445679,
				-1.776356669993661e-14,
				1.1948580741882324
			],
			"min":[
				-1.0262951850891113,
				-0.7029668688774109,
				-1.032682180404663
			],
			"type":"VEC3"
		},
		{
			"bufferView":1,
			"componentType":5126,
			"count":2176,
			"type":"VEC3"
		},
		{
			"bufferView":2,
			"componentType":5126,
			"count":2176,
			"type":"VEC2"
		},
		{
			"bufferView":3,
			"componentType":5123,
			"count":7848,
			"type":"SCALAR"
		},
		{
			"bufferView":4,
			"componentType":5126,
			"count":19989,
			"max":[
				0.25613078474998474,
				0.24707861244678497,
				0.025401646271348
			],
			"min":[
				-0.024339938536286354,
				-0.2870425879955292,
				-0.08794610947370529
			],
			"type":"VEC3"
		},
		{
			"bufferView":5,
			"componentType":5126,
			"count":19989,
			"type":"VEC3"
		},
		{
			"bufferView":6,
			"componentType":5126,
			"count":19989,
			"type":"VEC2"
		},
		{
			"bufferView":7,
			"componentType":5123,
			"count":100416,
			"type":"SCALAR"
		},
		{
			"bufferView":8,
			"componentType":5126,
			"count":464,
			"max":[
				0.2379370480775833,
				0.23814213275909424,
				0.007356457412242889
			],
			"min":[
				-0.0087111322209239,
				-0.0026940940879285336,
				-0.0073886774480342865
			],
			"type":"VEC3"
		},
		{
			"bufferView":9,
			"componentType":5126,
			"count":464,
			"type":"VEC3"
		},
		{
			"bufferView":10,
			"componentType":5126,
			"count":464,
			"type":"VEC2"
		},
		{
			"bufferView":11,
			"componentType":5123,
			"count":1344,
			"type":"SCALAR"
		},
		{
			"bufferView":12,
			"componentType":5126,
			"count":1440,
			"max":[
				0.25386032462120056,
				-0.1311522126197815,
				0.023131167516112328
			],
			"min":[
				0.20699456334114075,
				-0.1333242952823639,
				-0.023734604939818382
			],
			"type":"VEC3"
		},
		{
			"bufferView":13,
			"componentType":5126,
			"count":1440,
			"type":"VEC3"
		},
		{
			"bufferView":14,
			"componentType":5126,
			"count":1440,
			"type":"VEC2"
		},
		{
			"bufferView":15,
			"componentType":5123,
			"count":2586,
			"type":"SCALAR"
		}
	],
	"bufferViews":[
		{
			"buffer":0,
			"byteLength":26112,
			"byteOffset":0,
			"target":34962
		},
		{
			"buffer":0,
			"byteLength":26112,
			"byteOffset":26112,
			"target":34962
		},
		{
			"buffer":0,
			"byteLength":17408,
			"byteOffset":52224,
			"target":34962
		},
		{
			"buffer":0,
			"byteLength":15696,
			"byteOffset":69632,
			"target":34963
		},
		{
			"buffer":0,
			"byteLength":239868,
			"byteOffset":85328,
			"target":34962
		},
		{
			"buffer":0,
			"byteLength":239868,
			"byteOffset":325196,
			"target":34962
		},
		{
			"buffer":0,
			"byteLength":159912,
			"byteOffset":565064,
			"target":34962
		},
		{
			"buffer":0,
			"byteLength":200832,
			"byteOffset":724976,
			"target":34963
		},
		{
			"buffer":0,
			"byteLength":5568,
			"byteOffset":925808,
			"target":34962
		},
		{
			"buffer":0,
			"byteLength":5568,
			"byteOffset":931376,
			"target":34962
		},
		{
			"buffer":0,
			"byteLength":3712,
			"byteOffset":936944,
			"target":34962
		},
		{
			"buffer":0,
			"byteLength":2688,
			"byteOffset":940656,
			"target":34963
		},
		{
			"buffer":0,
			"byteLength":17280,
			"byteOffset":943344,
			"target":34962
		},
		{
			"buffer":0,
			"byteLength":17280,
			"byteOffset":960624,
			"target":34962
		},
		{
			"buffer":0,
			"byteLength":11520,
			"byteOffset":977904,
			"target":34962
		},
		{
			"buffer":0,
			"byteLength":5172,
			"byteOffset":989424,
			"target":34963
		}
	],
	"buffers":[
		{
			"byteLength":994596,
			"uri":"0111.bin"
		}
	]
}
